<?xml version="1.0" standalone="no"?>
<!DOCTYPE svg PUBLIC "-//W3C//DTD SVG 20010904//EN"
 "http://www.w3.org/TR/2001/REC-SVG-20010904/DTD/svg10.dtd">
<svg version="1.0" xmlns="http://www.w3.org/2000/svg"
 width="16.000000pt" height="16.000000pt" viewBox="0 0 16.000000 16.000000"
 preserveAspectRatio="xMidYMid meet">
<metadata>
Created by potrace 1.11, written by Peter Selinger 2001-2013
</metadata>
<g transform="translate(0.000000,16.000000) scale(0.006154,-0.006154)"
fill="#000000" stroke="none">
<path d="M1085 2584 c-222 -38 -451 -144 -617 -284 -241 -203 -407 -496 -453
-797 -19 -122 -14 -357 9 -462 109 -497 465 -871 951 -1001 104 -28 173 -35
325 -35 132 0 223 8 278 24 17 5 32 8 32 6 0 -8 172 55 245 89 282 132 528
387 640 663 15 37 31 77 36 88 64 156 85 449 48 656 -96 537 -507 946 -1060
1054 -70 14 -353 13 -434 -1z"/>
</g>
</svg>
