<svg xmlns="http://www.w3.org/2000/svg" width="661.344" height="96.546" viewBox="0 0 661.344 96.546"><path fill="#005BAA" d="M311.655 38.94l-1.315-.118c-.32-.046-.545-.165-.652-.35-.09-.157-.214-.495-.294-1.21l-.118-2.618-.015-3.65V19.348c0-1.146.53-1.375.926-1.448l.75-.087c.335 0 .464-.23.464-.426 0-.183-.094-.488-.725-.488l-2.92.09-3.34-.09c-.638 0-.732.305-.732.487 0 .196.13.426.492.426l1.166.113c.302.065.533.207.688.42.16.222.24.558.24 1v7.04l-12.522-.072.07-.553V19.35c0-1.146.53-1.375.926-1.448l.75-.087c.334 0 .463-.23.463-.426 0-.183-.094-.488-.725-.488l-2.918.09-3.342-.09c-.638 0-.73.305-.73.487 0 .196.127.426.49.426l1.167.113c.3.065.53.207.687.42.16.22.24.557.24.998v11.644l-.03 3.946-.116 2.468-.26 1.054c-.098.208-.228.325-.41.367l-.868.115c-.134-.002-.284.095-.413.287l-.042.062v.076c0 .182.094.487.725.487l2.918-.09c0 .002 1.454.06 1.454.06l2.192.03c.63 0 .725-.305.725-.487v-.076l-.043-.063c-.128-.193-.278-.29-.445-.29l-1.315-.118c-.325-.047-.543-.162-.653-.352-.13-.225-.23-.633-.294-1.21l-.118-2.617-.015-3.65v-3.12l12.522.07-.072 3.05-.03 3.945-.117 2.47-.26 1.053c-.097.21-.227.326-.408.368l-.87.115c-.133-.002-.283.095-.41.287l-.043.063v.076c0 .18.093.486.724.486l2.917-.09c0 .002 1.456.06 1.456.06l2.192.03c.63 0 .725-.305.725-.487v-.077l-.042-.063c-.128-.192-.277-.29-.445-.29zm-102.262-3.593c-.383 0-.48.486-.512.646-.18 1.04-.582 1.698-1.19 1.958-.002.002-1.09.264-1.09.264l-1.662.044c-1.724 0-2.397-.232-2.658-.426-.356-.266-.538-.858-.538-1.76V28.38c.002.042 2.355.085 2.355.085l1.942.118c.402.044.716.16.933.343l.28.49.107.923c0 .38.247.516.458.516.304 0 .458-.274.458-.814l.103-1.623.25-1.9c.002-.2-.08-.346-.24-.475l-.068-.054h-.087c-.146 0-.3.08-.662.486-.185.207-.593.317-1.18.317l-.794.06h-3.93l.073-8.245 3.368.07c.758 0 1.37.113 1.83.333.304.153.514.357.64.625.133.286.198.582.198.904 0 .548.38.575.458.575.115 0 .393-.048.482-.498l.153-1.99c0 .007.144-.914.144-.914l.095-.5c0-.536-.328-.578-.428-.578h-.06l-.468.24-1.223.118h-6.684l-3.35-.09c-.638 0-.73.305-.73.487 0 .197.126.427.486.427l1.135.113c.298.067.513.192.656.382.052.07.15.258.22.747.005.024.087 1.36.087 1.36v10.574l-.06 4.417c-.04 1.25-.097 2.064-.173 2.423l-.238.742-.37.26-.433.116-.38-.008c-.167 0-.317.097-.445.29l-.042.062v.076c0 .182.094.487.725.487l2.918-.09 7.322.18c.903 0 1.177-.07 1.305-.124.25-.103.425-.378.534-.842l.272-1.567.135-1.37c0-.576-.232-.696-.427-.696zm-46.78-7.13l-2.92.09-3.34-.09c-.638 0-.732.306-.732.488 0 .197.128.428.488.428l.95.082c.53.137.853.333.96.583.085.202.187.753.187 2.234v5.05c0 .387-.15.653-.47.837-.366.21-.832.36-1.382.443l-1.878.13c-2.833 0-5.293-.946-7.315-2.814-2.233-2.06-3.365-4.867-3.365-8.342 0-3.217.9-5.642 2.678-7.208 1.53-1.358 3.673-2.047 6.37-2.047 1.763 0 3.3.254 4.57.755 1.056.415 1.797.932 2.202 1.54l.457.968.125.854c.026.214.09.695.458.695.25 0 .546-.15.546-.873l.06-2.762.118-1.427c0-.28-.158-.546-.605-.546.033.002-3.78-.532-3.78-.532-1.225-.18-2.292-.27-3.17-.27-3.583 0-6.57.866-8.88 2.574-2.807 2.058-4.23 5.194-4.23 9.318 0 4.187 1.535 7.364 4.563 9.443 2.37 1.626 5.394 2.45 8.993 2.45 1 0 2.11-.11 3.297-.33 1.2-.223 2.247-.57 3.117-1.036.004-.002.45-.546.45-.546l.067-1.278v-3.327l.03-2.03.088-1.572.228-.61c.1-.15.308-.26.616-.325l.72-.085c.33 0 .46-.23.46-.426-.005-.18-.098-.486-.73-.486zM328.17 16.486c-3.823 0-6.897 1.38-9.134 4.1-1.87 2.274-2.82 4.886-2.82 7.764 0 3.094.93 5.786 2.76 8 2.16 2.602 5.192 3.92 9.015 3.92 3.562 0 6.52-1.234 8.797-3.672 2.192-2.334 3.305-5.27 3.305-8.725 0-3.463-1.132-6.258-3.363-8.308-2.227-2.043-5.107-3.08-8.56-3.08zm7.063 18.594c-.783 1.296-1.874 2.263-3.245 2.872-1.014.46-2.09.69-3.195.69-2.644 0-4.87-1.024-6.613-3.046-1.753-2.032-2.643-4.75-2.643-8.08 0-3.086.806-5.497 2.396-7.164 1.49-1.565 3.517-2.358 6.027-2.358 2.41 0 4.467.922 6.11 2.74 1.772 1.962 2.67 4.645 2.67 7.97 0 2.596-.507 4.74-1.507 6.375zm-212.42 3.86l-1.314-.118c-.322-.046-.546-.165-.653-.35-.13-.228-.23-.635-.295-1.21l-.117-2.618-.015-3.65V19.348c0-1.146.528-1.375.925-1.448l.75-.087c.334 0 .463-.23.463-.426 0-.183-.094-.488-.725-.488l-2.92.09-3.34-.09c-.638 0-.732.305-.732.487 0 .196.13.426.493.426l1.166.113c.3.065.53.207.686.42.16.222.24.558.24 1v7.04l-12.522-.072.07-.553V19.35c0-1.146.528-1.375.925-1.448l.75-.087c.334 0 .463-.23.463-.426 0-.183-.094-.488-.725-.488l-2.918.09-3.342-.09c-.638 0-.73.305-.73.487 0 .196.126.426.487.426l1.134.113c.297.066.512.19.655.38.052.07.15.26.22.748.005.025.087 1.36.087 1.36v10.575l-.06 4.417c-.04 1.25-.097 2.063-.173 2.422l-.24.742-.368.26-.433.116-.38-.01c-.167 0-.317.098-.446.29l-.042.063v.076c0 .18.094.486.725.486l2.918-.09c0 .002 1.454.06 1.454.06l2.19.03c.632 0 .726-.305.726-.487v-.077l-.042-.063c-.128-.192-.278-.29-.445-.29l-1.316-.117c-.325-.047-.543-.162-.653-.352-.088-.154-.212-.49-.293-1.21l-.118-2.616-.016-3.65v-3.12l12.522.07-.07 3.05-.03 3.945-.118 2.468-.26 1.054c-.098.21-.227.325-.41.367l-.868.114c-.134-.002-.284.095-.412.287l-.042.064v.076c0 .182.094.487.725.487l2.92-.09c0 .002 1.453.06 1.453.06l2.192.03c.63 0 .725-.305.725-.487v-.076l-.042-.063c-.128-.192-.278-.29-.445-.29zm13.335 0l-1.314-.118c-.32-.046-.545-.165-.652-.35-.13-.228-.23-.635-.295-1.21l-.117-2.618-.015-3.65V19.348c0-1.146.528-1.375.925-1.448l.75-.087c.334 0 .463-.23.463-.426 0-.183-.094-.488-.725-.488l-2.92.09-2.984-.09c-.638 0-.732.305-.732.487 0 .196.13.426.492.426l.45.03.417.077c.386.09.87.327.87 1.426v11.643l-.03 3.946-.117 2.467-.26 1.054c-.098.21-.227.326-.41.368l-.868.115c-.134-.002-.284.095-.412.287l-.042.063v.076c0 .18.095.486.726.486l2.918-.09c0 .002 1.454.06 1.454.06l2.192.03c.63 0 .725-.305.725-.487v-.077l-.042-.063c-.127-.192-.277-.29-.445-.29zm100.838 0l-.62-.03-.49-.054c-.498-.076-.972-.23-1.423-.454-.683-.342-1.374-.884-2.053-1.61l-1.848-2.07-2.045-2.578-2.155-2.77c1.23-1.167 2.16-2.323 2.717-3.44.53-1.058.798-2.215.798-3.437 0-.953-.262-1.866-.78-2.714-.392-.64-.854-1.154-1.373-1.528-.78-.554-1.622-.922-2.504-1.097-.86-.17-1.896-.257-3.077-.257l-3.512.09-3.342-.09c-.638 0-.732.306-.732.488 0 .197.13.427.492.427l1.166.113c.3.066.532.208.686.422.16.22.24.556.24.998v11.644l-.03 3.946-.116 2.468-.26 1.055c-.098.21-.228.326-.41.368l-.868.115c-.134-.002-.284.095-.413.287l-.042.063v.076c0 .18.095.486.726.486l2.8-.09c0 .002 1.453.06 1.453.06l2.19.03c.63 0 .725-.305.725-.487v-.077l-.042-.063c-.128-.192-.278-.29-.446-.29l-1.315-.117c-.32-.046-.544-.165-.652-.35-.13-.228-.23-.635-.295-1.21l-.118-2.62-.015-3.65v-.713l3.612.012.21.105 3.21 4.396c.004.003 2.182 2.792 2.182 2.792.703.812 1.33 1.358 1.913 1.67l1.334.477 1.96.123h2.11c.263 0 .962 0 .962-.487v-.17l-.1-.094-.41-.164zm-11.814-10.53c-.31.22-.62.36-.92.422l-1.167.1-1.86-.147c-.762-.123-1.01-.22-1.088-.266-.13-.077-.13-.14-.13-.172v-9.712c0-.087.023-.095.053-.104l.75-.123 1.176-.06c1.52 0 2.727.5 3.583 1.488.865.998 1.304 2.412 1.304 4.203 0 1.09-.16 2.018-.47 2.755-.306.725-.72 1.268-1.232 1.615zm30.354-1l-1.752-1.395c-1.42-1.147-2.38-2.05-2.85-2.686-.452-.608-.68-1.318-.68-2.11 0-1.003.313-1.768.956-2.337s1.466-.858 2.448-.858c.892 0 1.647.133 2.246.396.58.254 1 .608 1.25 1.052l.242.68.112.683c.078.533.307.636.487.636.458 0 .458-.676.458-.932l.044-2.005.074-1.123c0-.242-.142-.478-.545-.478l-.988-.144c-.84-.2-1.79-.302-2.814-.302-1.915 0-3.474.515-4.634 1.532-1.17 1.025-1.765 2.393-1.765 4.064 0 1.166.26 2.226.774 3.15.585 1.072 1.655 2.246 3.178 3.49l1.336 1.097c1.28 1.066 2.17 1.968 2.64 2.677.454.688.685 1.52.685 2.476 0 .993-.33 1.82-1 2.53-.75.788-1.73 1.17-3 1.17-1.057 0-1.952-.217-2.66-.646-.797-.5-1.285-1.215-1.49-2.185l-.084-1.047c0-.535-.35-.577-.457-.577-.203 0-.452.123-.488.71l-.104 1.483-.045 1.68.074.903.518.454c.607.283 1.26.495 1.94.627l2.143.197c2.254 0 4.07-.642 5.4-1.91 1.233-1.17 1.86-2.69 1.86-4.517 0-1.306-.292-2.48-.865-3.494-.568-1.004-1.458-1.993-2.647-2.94zm27.942 6.57c-.276 0-.46.233-.543.694l-.373 1.217c-.185.48-.406.85-.657 1.103-.54.56-1.195.936-1.947 1.12-.78.194-1.803.292-3.044.292-3.022 0-5.57-1.083-7.57-3.22-1.926-2.06-2.903-4.55-2.903-7.402 0-2.938.623-5.226 1.85-6.797 1.487-1.907 3.98-2.874 7.406-2.874 2.007 0 3.645.35 4.868 1.038 1.394.79 2.07 1.915 2.07 3.436 0 .58.165.873.488.873.18 0 .41-.107.485-.614l.062-1.507.058-1.78.148-1.67c0-.305-.166-.603-.635-.603.036.002-3.69-.532-3.69-.532-1.225-.18-2.45-.27-3.645-.27-4.333 0-7.675 1.328-9.932 3.948-1.794 2.077-2.704 4.63-2.704 7.59 0 3.656 1.134 6.605 3.372 8.763 2.393 2.313 5.85 3.485 10.272 3.485l3.046-.193c1.07-.133 1.853-.298 2.39-.505.016-.006.608-.368.608-.368l.36-.822.393-2.003.227-1.704c0-.605-.288-.696-.46-.696zM190.8 38.94l-1.315-.118c-.325-.047-.543-.162-.653-.352-.09-.156-.213-.493-.294-1.21l-.118-2.618-.015-3.65V19.348c0-1.146.527-1.375.924-1.448l.75-.087c.334 0 .463-.23.463-.426 0-.183-.094-.488-.725-.488l-2.918.09-3.342-.09c-.638 0-.73.305-.73.487 0 .196.127.426.49.426l1.167.113c.3.065.532.207.687.42.16.222.24.557.24 1v7.04l-12.522-.072.07-.553V19.35c0-1.146.53-1.375.926-1.448l.75-.087c.334 0 .463-.23.463-.426 0-.183-.095-.488-.726-.488l-2.918.09-3.342-.09c-.638 0-.73.305-.73.487 0 .196.128.426.49.426l1.167.113c.3.065.533.207.687.42.16.222.24.557.24 1v11.643l-.03 3.946-.116 2.467-.26 1.054c-.097.21-.226.326-.408.368l-.87.115c-.133-.002-.283.095-.412.287l-.042.063v.076c0 .18.094.486.725.486l2.918-.09c0 .002 1.455.06 1.455.06l2.192.03c.63 0 .724-.305.724-.487v-.077l-.04-.063c-.13-.192-.28-.29-.446-.29l-1.314-.117c-.32-.046-.545-.165-.652-.35-.13-.227-.23-.634-.295-1.21l-.117-2.618-.015-3.65v-3.12l12.523.07-.07 3.05-.03 3.945-.118 2.47-.26 1.053c-.098.208-.228.325-.41.367l-.868.115c-.134-.002-.283.095-.412.287l-.042.063v.076c0 .183.094.488.725.488l2.918-.09c0 .002 1.454.06 1.454.06l2.192.03c.63 0 .725-.305.725-.487v-.075l-.042-.063c-.128-.194-.278-.292-.445-.292zm417.87 0l-.88-.043-.975-.213c-.5-.155-.856-.542-1.09-1.183l-.342-1.756-1.99-18.233c-.03-.28-.112-1.024-.604-1.024-.403 0-.608.47-.676.625l-8.508 18.174-8.86-18.212c-.066-.142-.273-.586-.67-.586-.298 0-.49.25-.573.744l-2.14 19.38c-.097.982-.19 1.38-.253 1.54-.15.415-.354.64-.63.69l-.95.1-.59.26.044.14c0 .154.074.516.755.516l2.503-.09 2.746.09c.688 0 .79-.324.79-.517v-.115l-.195-.17-.29-.114-.454-.028-.845-.144c-.105-.023-.352-.077-.352-.647l.03-1.51 1.124-13.04 1.042 2.264 2.586 5.552 3.477 6.877.525.93c.23.407.408.573.617.573.324 0 .536-.353.686-.66l.52-1.046 6.978-14.61 1.342 14.426c.003.018.028.453.028.453l-.045.4c-.183.068-.312.2-.312.4 0 .47.72.522 1.065.546l2.65.09 2.327.088c.722 0 .874-.28.874-.517.002-.065-.02-.397-.485-.397zm-44.76-22.455c-3.822 0-6.896 1.38-9.134 4.1-1.87 2.274-2.82 4.886-2.82 7.764 0 3.093.93 5.785 2.762 8 2.16 2.602 5.19 3.92 9.014 3.92 3.56 0 6.52-1.234 8.797-3.672 2.19-2.334 3.304-5.27 3.304-8.725 0-3.463-1.132-6.258-3.363-8.308-2.226-2.043-5.106-3.08-8.56-3.08zm7.064 18.594c-.782 1.296-1.873 2.263-3.244 2.872-1.014.46-2.09.69-3.195.69-2.644 0-4.868-1.024-6.612-3.046-1.754-2.032-2.643-4.75-2.643-8.08 0-3.086.806-5.497 2.396-7.164 1.49-1.565 3.517-2.358 6.027-2.358 2.41 0 4.466.922 6.11 2.74 1.772 1.962 2.67 4.645 2.67 7.97-.002 2.596-.508 4.74-1.51 6.375zM547.188 16.9l-2.524.09-1.298-.06-1.792-.03c-.21 0-.844 0-.844.46 0 .277.19.456.487.456l.687.044.725.1c.38.096.63.29.747.59.137.344.205 1.013.205 1.987l.313 14.432-6.68-7.266-9.446-10.19c-.008-.006-.612-.624-.612-.624l-.612-.404c-.124 0-.423.048-.512.498l-.064 1.237v17.02c0 1.323-.058 2.254-.173 2.77-.096.435-.252.687-.464.75l-.62.155-.603.027c-.36 0-.487.23-.487.428 0 .182.095.487.726.487l2.835-.09 1.173.06 1.96.03c.65 0 .786-.265.786-.487 0-.197-.128-.428-.488-.428l-.677-.03-.86-.17c-.275-.075-.478-.31-.618-.716-.16-.458-.24-1.286-.24-2.458l-.367-13.557 3.587 3.983 3.714 4.04c0 .002 4.98 5.25 4.98 5.25l2.786 2.814 1.607 1.548c.43.37.604.42.73.42.09 0 .395-.035.468-.478l.048-1.882V20.3c0-.938.06-1.572.182-1.887.104-.27.284-.422.567-.484l.863-.114c.543 0 .586-.35.586-.457 0-.305-.265-.46-.786-.46zM644.4 33.98c-.275 0-.457.233-.542.694l-.374 1.217c-.183.48-.404.85-.656 1.103-.54.56-1.194.936-1.946 1.122-.778.193-1.803.29-3.045.29-3.022 0-5.57-1.082-7.57-3.218-1.926-2.06-2.902-4.55-2.902-7.403 0-2.938.622-5.226 1.85-6.797 1.486-1.907 3.978-2.874 7.405-2.874 2.006 0 3.644.35 4.868 1.038 1.393.79 2.07 1.915 2.07 3.437 0 .58.164.873.487.873.18 0 .41-.106.484-.614l.062-1.506.06-1.78.146-1.668c.002-.306-.165-.603-.634-.603.035 0-3.69-.533-3.69-.533-1.226-.18-2.452-.27-3.647-.27-4.333 0-7.675 1.328-9.932 3.948-1.794 2.077-2.704 4.63-2.704 7.59 0 3.657 1.136 6.605 3.375 8.763 2.393 2.313 5.85 3.485 10.27 3.485l3.047-.194c1.07-.134 1.854-.3 2.39-.506.017-.006.607-.37.607-.37l.36-.82.393-2.003.226-1.702c0-.607-.288-.698-.46-.698zM508.07 16.485c-3.82 0-6.895 1.38-9.133 4.1-1.87 2.274-2.82 4.886-2.82 7.764 0 3.093.93 5.785 2.762 8 2.158 2.602 5.19 3.92 9.014 3.92 3.56 0 6.52-1.234 8.796-3.672 2.192-2.334 3.305-5.27 3.305-8.725 0-3.463-1.132-6.258-3.363-8.308-2.227-2.043-5.107-3.08-8.56-3.08zm7.066 18.594c-.783 1.296-1.874 2.263-3.245 2.872-1.013.46-2.088.69-3.194.69-2.644 0-4.868-1.024-6.612-3.046-1.754-2.032-2.643-4.75-2.643-8.08 0-3.086.807-5.497 2.397-7.164 1.49-1.565 3.517-2.358 6.027-2.358 2.41 0 4.466.922 6.11 2.74 1.772 1.963 2.67 4.646 2.67 7.97 0 2.596-.508 4.74-1.508 6.375zm104.494 3.86l-1.313-.118c-.32-.046-.545-.165-.653-.35-.09-.157-.214-.494-.295-1.21l-.117-2.618-.016-3.65V19.348c0-1.146.527-1.375.924-1.448l.753-.087c.334 0 .463-.23.463-.426 0-.183-.095-.488-.725-.488l-2.918.09-2.984-.09c-.64 0-.733.305-.733.487 0 .196.13.426.493.426l.45.03.417.077c.385.09.867.327.867 1.426v11.643l-.03 3.946-.116 2.467-.26 1.054c-.097.21-.227.326-.41.368l-.867.115c-.135-.002-.285.095-.413.287l-.042.063v.076c0 .18.095.486.725.486l2.92-.09c0 .002 1.452.06 1.452.06l2.192.03c.63 0 .726-.305.726-.487v-.077l-.042-.063c-.13-.192-.28-.29-.448-.29zm-233.543-3.712c-.193 0-.44.11-.515.63l-.25.844-.467.785c-.283.354-.662.567-1.16.656l-2.242.146c-1.086 0-1.888-.054-2.384-.16-.465-.097-.803-.25-1.004-.45-.217-.218-.58-1.368-.58-6.626V19.35c0-1.144.56-1.374.98-1.448l.984-.087c.34 0 .47-.23.47-.426 0-.183-.095-.488-.725-.488l-3.215.09-3.343-.09c-.638 0-.732.305-.732.487 0 .196.13.426.493.426l1.165.113c.3.065.532.207.686.42.16.222.24.557.24 1v11.643l-.03 3.946-.117 2.467-.26 1.054c-.097.21-.227.326-.408.368l-.87.115c-.133-.002-.283.095-.41.287l-.043.063v.076c0 .18.095.486.725.486l1.702-.06 1.214-.03 3.55.12 4.404.06c1.06 0 1.38-.09 1.528-.156.27-.12.47-.42.613-.916l.304-1.597.12-1.354c0-.575-.232-.695-.427-.695zm24.475-18.743c-3.823 0-6.896 1.38-9.134 4.1-1.87 2.274-2.82 4.886-2.82 7.764 0 3.093.93 5.785 2.762 8 2.158 2.602 5.19 3.92 9.014 3.92 3.56 0 6.52-1.234 8.796-3.672 2.193-2.333 3.306-5.27 3.306-8.725 0-3.462-1.132-6.257-3.363-8.308-2.228-2.044-5.108-3.08-8.56-3.08zm7.063 18.594c-.78 1.296-1.873 2.262-3.245 2.872-1.013.46-2.088.69-3.195.69-2.644 0-4.868-1.024-6.612-3.046-1.754-2.033-2.643-4.75-2.643-8.08 0-3.085.806-5.496 2.396-7.164 1.488-1.565 3.516-2.358 6.027-2.358 2.41 0 4.466.922 6.11 2.74 1.772 1.963 2.67 4.646 2.67 7.97 0 2.596-.507 4.74-1.508 6.375zm-62.012-18.595c-3.822 0-6.896 1.38-9.134 4.1-1.87 2.274-2.82 4.886-2.82 7.764 0 3.093.93 5.785 2.76 8 2.16 2.602 5.192 3.92 9.015 3.92 3.562 0 6.52-1.234 8.797-3.672 2.192-2.334 3.305-5.27 3.305-8.725 0-3.463-1.132-6.258-3.363-8.308-2.227-2.043-5.107-3.08-8.56-3.08zm7.064 18.594c-.782 1.296-1.873 2.263-3.244 2.872-1.014.46-2.09.69-3.195.69-2.644 0-4.868-1.024-6.612-3.046-1.754-2.032-2.643-4.75-2.643-8.08 0-3.086.806-5.497 2.396-7.164 1.488-1.565 3.516-2.358 6.026-2.358 2.41 0 4.466.922 6.11 2.74 1.772 1.962 2.67 4.645 2.67 7.97 0 2.596-.508 4.74-1.51 6.375zm104.91.267c-.382 0-.48.486-.512.646-.182 1.04-.58 1.698-1.19 1.958-.002.002-1.092.264-1.092.264l-1.66.044c-1.724 0-2.396-.232-2.657-.426-.357-.266-.538-.858-.538-1.76V28.38c0 .042 2.354.085 2.354.085l1.943.118c.402.044.717.16.935.343 0 .003.278.49.278.49l.107.923c0 .38.247.516.458.516.304 0 .458-.274.458-.814l.104-1.623.25-1.9c.004-.2-.078-.345-.238-.474l-.068-.055h-.088c-.146 0-.3.08-.662.486-.185.207-.592.317-1.18.317l-.794.06h-3.93l.073-8.245 3.367.07c.758 0 1.37.113 1.83.333.303.153.513.357.638.625.135.286.2.582.2.904 0 .548.38.575.457.575.114 0 .393-.048.48-.5l.153-1.988c0 .007.144-.914.144-.914l.096-.5c0-.536-.328-.578-.43-.578h-.06l-.466.24-1.224.118h-6.686l-3.35-.09c-.637 0-.73.305-.73.487 0 .197.127.427.486.427l1.135.113c.298.067.513.192.656.382.052.07.15.258.22.747.005.024.086 1.36.086 1.36v10.574l-.06 4.417c-.038 1.246-.096 2.06-.172 2.423l-.24.74c-.066.116-.187.2-.367.262l-.43.115-.382-.01c-.167 0-.317.098-.445.29l-.042.063v.076c0 .18.096.486.727.486l2.918-.09 7.322.18c.903 0 1.178-.07 1.306-.124.25-.103.424-.378.533-.842l.27-1.568.138-1.37c.003-.575-.23-.695-.426-.695zm-27.62-18.713h-.062l-.467.24-1.223.118h-7.16l-3.47-.09c-.637 0-.73.305-.73.487 0 .196.127.426.487.426l1.134.113c.3.066.514.19.655.38.054.07.15.26.222.748.005.025.086 1.36.086 1.36v10.575l-.06 4.417c-.038 1.245-.096 2.06-.172 2.422l-.24.74c-.066.116-.187.2-.367.262l-.433.115-.38-.01c-.168 0-.318.097-.446.29l-.04.062v.076c0 .182.094.487.725.487l2.92-.09 1.452.06 2.192.03c.63 0 .724-.305.724-.487v-.076l-.042-.063c-.128-.193-.278-.29-.445-.29l-1.314-.118c-.513-.064-.793-.342-.874-.873l-.176-2.64-.03-4.318v-2.554c0 .013 2.534.056 2.534.056l2.06.118c.404.044.72.16.935.343l.28.49.107.923c0 .38.247.517.458.517.303 0 .457-.27.457-.804l.103-1.597.25-1.875c.005-.2-.076-.344-.236-.474l-.07-.055h-.087c-.146 0-.303.078-.662.484-.185.207-.592.317-1.18.317h-4.948v-8.215c.018-.077 3.216.012 3.217.012h.75c.752 0 1.365.112 1.823.332.304.15.514.355.64.623.134.286.2.582.2.904 0 .55.38.576.457.576.143 0 .395-.064.482-.498l.152-1.99c0 .007.143-.914.143-.914l.095-.5c0-.535-.33-.576-.43-.576zM492.15 33.98c-.275 0-.457.233-.542.694l-.374 1.217c-.183.48-.404.85-.656 1.103-.54.56-1.194.936-1.946 1.122-.778.193-1.803.29-3.045.29-3.022 0-5.57-1.082-7.57-3.218-1.925-2.06-2.9-4.55-2.9-7.403 0-2.94.62-5.227 1.847-6.797 1.487-1.907 3.98-2.874 7.406-2.874 2.006 0 3.644.35 4.868 1.038 1.393.79 2.07 1.915 2.07 3.437 0 .58.164.873.487.873.18 0 .41-.106.484-.614l.062-1.506.06-1.78.146-1.668c.002-.306-.165-.603-.634-.603.035 0-3.69-.533-3.69-.533-1.226-.18-2.452-.27-3.647-.27-4.333 0-7.675 1.328-9.932 3.948-1.794 2.077-2.704 4.63-2.704 7.59 0 3.657 1.136 6.605 3.375 8.763 2.393 2.313 5.85 3.485 10.27 3.485l3.047-.194c1.07-.134 1.854-.3 2.39-.506.016-.006.607-.37.607-.37l.36-.82.393-2.003.226-1.702c0-.607-.288-.698-.46-.698zm168.296-3.62c-.665-1.11-1.854-2.352-3.534-3.692l-.833-.654c-1.44-1.167-2.404-2.08-2.863-2.713-.44-.605-.665-1.305-.665-2.08 0-1.003.313-1.77.955-2.338s1.467-.858 2.448-.858c.892 0 1.647.133 2.246.396.58.253 1 .607 1.25 1.05l.242.682.11.682c.08.533.31.636.49.636.456 0 .456-.677.456-.933l.044-2.006.074-1.12c0-.243-.143-.48-.546-.48l-.99-.143c-.84-.2-1.787-.302-2.812-.302-1.915 0-3.475.515-4.635 1.532-1.17 1.026-1.764 2.394-1.764 4.064 0 1.168.26 2.228.772 3.152.586 1.07 1.656 2.244 3.18 3.488l1.336 1.098c1.28 1.066 2.168 1.968 2.64 2.678.454.687.685 1.52.685 2.476 0 .992-.327 1.82-1 2.53-.74.777-1.747 1.17-2.997 1.17-1.06 0-1.954-.217-2.663-.646-.796-.5-1.284-1.215-1.49-2.185l-.082-1.046c0-.55-.38-.577-.457-.577-.202 0-.45.123-.486.71l-.104 1.482-.045 1.68.075.902.517.453c.607.283 1.26.495 1.94.627l2.144.197c.85 0 1.686-.108 2.485-.32.806-.215 1.526-.543 2.142-.973.967-.7 1.685-1.595 2.137-2.662.327-.803.494-1.634.494-2.474 0-1.304-.302-2.476-.898-3.48zM101.988 68.032V56.697h1.538l5.954 8.9v-8.9h1.438v11.335h-1.538l-5.954-8.907v8.907h-1.438M123.49 68.032l4.354-11.335h1.615l4.64 11.335h-1.71l-1.323-3.434h-4.74l-1.243 3.434h-1.594zm3.27-4.656h3.845l-1.185-3.138c-.36-.953-.628-1.736-.802-2.352-.146.73-.35 1.45-.612 2.167l-1.246 3.323zM148.305 68.032v-9.997h-3.734v-1.338h8.984v1.338h-3.75v9.997h-1.5M166.646 68.032V56.697h1.5v11.335h-1.5M181.63 62.51c0-1.88.504-3.353 1.515-4.417s2.314-1.597 3.914-1.597c1.044 0 1.99.25 2.828.75.84.5 1.48 1.197 1.92 2.092.442.893.66 1.908.66 3.04 0 1.15-.228 2.18-.693 3.086-.465.907-1.122 1.594-1.972 2.06-.853.47-1.768.7-2.752.7-1.068 0-2.02-.255-2.86-.772-.842-.515-1.478-1.22-1.91-2.11-.434-.89-.65-1.836-.65-2.83zm1.546.025c0 1.367.367 2.44 1.1 3.228.737.787 1.658 1.18 2.767 1.18 1.13 0 2.06-.396 2.787-1.19.73-.794 1.095-1.92 1.095-3.38 0-.922-.158-1.727-.47-2.415-.312-.69-.768-1.222-1.367-1.603-.602-.377-1.274-.567-2.02-.567-1.064 0-1.978.364-2.743 1.096-.766.727-1.15 1.946-1.15 3.65zM205.685 68.032V56.697h1.538l5.954 8.9v-8.9h1.438v11.335h-1.538l-5.954-8.907v8.907h-1.438M227.187 68.032l4.354-11.335h1.616l4.64 11.335h-1.71l-1.322-3.434h-4.74l-1.243 3.434h-1.593zm3.27-4.656h3.845l-1.185-3.138c-.36-.953-.628-1.736-.803-2.352-.145.73-.348 1.45-.612 2.167l-1.245 3.323zM250.23 68.032V56.697h1.5v9.997h5.582v1.338h-7.083M278.63 68.032V56.697h5.024c1.01 0 1.78.103 2.304.307.525.203.945.562 1.262 1.076.314.518.47 1.088.47 1.71 0 .806-.26 1.48-.78 2.032s-1.326.903-2.414 1.054c.398.19.7.377.905.564.44.4.854.905 1.247 1.507l1.97 3.085h-1.886l-1.498-2.36c-.438-.677-.8-1.2-1.085-1.56-.282-.36-.536-.613-.76-.756-.224-.146-.45-.246-.683-.304-.172-.034-.45-.053-.837-.053h-1.74v5.03h-1.498v.002zm1.5-6.33h3.224c.684 0 1.222-.072 1.607-.215.39-.143.682-.37.882-.68s.3-.65.3-1.018c0-.536-.192-.978-.582-1.323-.388-.345-1.002-.517-1.845-.517h-3.586v3.75zM301.37 68.032V56.697h8.195v1.338h-6.696v3.47h6.27v1.33h-6.27v3.86h6.96v1.337h-8.46M322.688 64.39l1.415-.124c.066.567.222 1.03.467 1.396s.625.657 1.14.882 1.095.335 1.74.335c.57 0 1.075-.085 1.514-.254.438-.172.766-.404.98-.7.212-.298.32-.62.32-.97 0-.357-.103-.666-.312-.933-.205-.267-.546-.488-1.02-.667-.305-.12-.975-.304-2.018-.555-1.04-.25-1.77-.484-2.188-.706-.54-.282-.945-.637-1.21-1.056-.265-.42-.397-.89-.397-1.412 0-.57.16-1.105.484-1.603.325-.498.8-.876 1.422-1.135.625-.256 1.317-.385 2.08-.385.842 0 1.58.135 2.226.406.64.27 1.135.667 1.48 1.192.343.524.53 1.12.557 1.786l-1.44.108c-.078-.715-.34-1.26-.785-1.623-.446-.367-1.104-.55-1.975-.55-.908 0-1.567.167-1.984.5-.415.332-.623.733-.623 1.2 0 .41.148.744.44 1.006.29.263 1.043.532 2.262.807 1.22.277 2.056.518 2.51.723.66.307 1.148.69 1.463 1.156.313.467.47 1.006.47 1.612 0 .604-.172 1.172-.518 1.705s-.842.947-1.488 1.246c-.646.294-1.375.442-2.183.442-1.028 0-1.888-.148-2.58-.45-.694-.297-1.238-.746-1.634-1.348-.39-.595-.6-1.276-.618-2.034zM345.088 68.032V56.697h8.194v1.338h-6.695v3.47h6.27v1.33h-6.27v3.86h6.96v1.337h-8.46M365.67 68.032l4.354-11.335h1.615l4.64 11.335h-1.71l-1.324-3.434h-4.74l-1.242 3.434h-1.594zm3.27-4.656h3.845l-1.186-3.138c-.36-.953-.63-1.736-.803-2.352-.146.73-.35 1.45-.613 2.167l-1.245 3.323zM388.798 68.032V56.697h5.024c1.01 0 1.78.103 2.305.307.524.203.944.562 1.262 1.076.312.518.47 1.088.47 1.71 0 .806-.26 1.48-.782 2.032-.52.552-1.325.903-2.412 1.054.398.19.7.377.905.564.44.4.854.905 1.246 1.507l1.972 3.085H396.9l-1.498-2.36c-.438-.677-.8-1.2-1.085-1.56-.282-.36-.536-.613-.76-.756-.225-.146-.452-.246-.684-.304-.172-.034-.45-.053-.837-.053h-1.74v5.03H388.8v.002zm1.5-6.33h3.224c.684 0 1.223-.072 1.607-.215.388-.143.68-.37.88-.68.2-.313.302-.65.302-1.018 0-.536-.193-.978-.583-1.323-.39-.345-1.004-.517-1.846-.517h-3.587v3.75zM419.593 64.057l1.502.38c-.314 1.23-.882 2.17-1.697 2.82-.818.645-1.815.968-2.998.968-1.222 0-2.214-.25-2.98-.745-.764-.498-1.348-1.22-1.746-2.16-.398-.945-.6-1.96-.6-3.04 0-1.18.225-2.21.676-3.09.452-.878 1.093-1.546 1.927-2.002.832-.457 1.747-.684 2.748-.684 1.135 0 2.087.287 2.86.865s1.312 1.388 1.615 2.436l-1.475.35c-.265-.827-.645-1.427-1.146-1.804-.5-.378-1.128-.565-1.888-.565-.87 0-1.597.21-2.183.626-.587.42-.998.98-1.233 1.684-.237.702-.356 1.428-.356 2.175 0 .966.142 1.805.42 2.525.283.718.72 1.256 1.313 1.612s1.235.532 1.927.532c.84 0 1.55-.242 2.133-.726.58-.485.974-1.206 1.18-2.16zM434.284 68.032V56.697h1.502v4.655h5.89v-4.655h1.502v11.335h-1.5V62.69h-5.892v5.342h-1.502M473.207 56.697h1.502v6.55c0 1.138-.13 2.044-.39 2.714s-.723 1.215-1.395 1.635c-.673.422-1.555.63-2.646.63-1.063 0-1.933-.182-2.606-.55-.676-.363-1.158-.894-1.446-1.588-.29-.693-.433-1.64-.433-2.84v-6.55h1.5v6.542c0 .984.092 1.71.273 2.174.183.468.5.826.942 1.08.446.253.992.38 1.636.38 1.104 0 1.89-.25 2.36-.752.467-.5.7-1.46.7-2.883v-6.543zM488.487 68.032V56.697h1.54l5.952 8.9v-8.9h1.438v11.335h-1.538l-5.954-8.907v8.907h-1.44M511.49 68.032V56.697h1.5v11.335h-1.5M530.17 68.032l-4.392-11.335h1.626l2.945 8.234c.236.66.435 1.28.593 1.856.177-.618.38-1.235.612-1.855l3.062-8.233h1.53l-4.438 11.335h-1.54zM548.822 68.032V56.697h8.196v1.338h-6.697v3.47h6.272v1.33h-6.27v3.86h6.96v1.337h-8.46M570.674 68.032V56.697h5.024c1.01 0 1.78.103 2.305.307.525.203.944.562 1.262 1.076.313.518.47 1.088.47 1.71 0 .806-.26 1.48-.78 2.032-.522.552-1.326.903-2.414 1.054.4.19.7.377.907.564.438.4.852.905 1.245 1.507l1.972 3.085h-1.887l-1.5-2.36c-.437-.677-.8-1.2-1.084-1.56-.282-.36-.536-.613-.76-.756-.225-.146-.452-.246-.684-.304-.173-.034-.45-.052-.838-.052h-1.74v5.032h-1.498zm1.5-6.33h3.224c.684 0 1.223-.072 1.607-.215.39-.143.68-.37.882-.68.2-.313.3-.65.3-1.018 0-.536-.19-.978-.582-1.323-.39-.345-1.004-.517-1.846-.517h-3.587v3.75zM592.873 64.39l1.415-.124c.065.567.22 1.03.467 1.396.245.364.625.657 1.14.882s1.096.335 1.74.335c.572 0 1.076-.085 1.515-.254.438-.172.765-.404.98-.7.213-.298.32-.62.32-.97 0-.357-.102-.666-.31-.933-.207-.267-.547-.488-1.02-.667-.307-.12-.977-.304-2.02-.555-1.04-.25-1.77-.484-2.188-.706-.54-.282-.944-.637-1.21-1.056-.266-.42-.397-.89-.397-1.412 0-.57.16-1.105.486-1.603.325-.498.8-.876 1.423-1.135.626-.256 1.317-.385 2.08-.385.842 0 1.58.135 2.225.406.642.27 1.135.667 1.48 1.192.343.524.53 1.12.557 1.786l-1.438.108c-.08-.715-.34-1.26-.787-1.623-.446-.367-1.104-.55-1.974-.55-.908 0-1.568.167-1.985.5-.413.332-.622.733-.622 1.2 0 .41.148.744.44 1.006.29.263 1.043.532 2.263.807 1.22.277 2.057.518 2.51.723.66.307 1.148.69 1.463 1.156.314.467.47 1.006.47 1.612 0 .604-.172 1.172-.517 1.705-.347.533-.843.947-1.49 1.246-.645.294-1.374.442-2.182.442-1.026 0-1.887-.148-2.578-.45-.694-.297-1.238-.746-1.634-1.348-.392-.595-.6-1.276-.62-2.034zM615.497 68.032V56.697h1.5v11.335h-1.5M633.822 68.032v-9.997h-3.734v-1.338h8.983v1.338h-3.75v9.997h-1.498M655.1 68.032v-4.8l-4.366-6.535h1.823l2.235 3.418c.412.64.794 1.277 1.15 1.92.34-.595.753-1.263 1.238-2.005l2.195-3.333h1.747l-4.523 6.535v4.8h-1.5z"/><path fill-rule="evenodd" clip-rule="evenodd" fill="#005BAA" d="M39.685 0C61.6 0 79.37 17.77 79.37 39.685 79.37 61.6 61.6 79.37 39.686 79.37 17.772 79.37 0 61.6 0 39.685 0 17.77 17.772 0 39.685 0z"/><path fill-rule="evenodd" clip-rule="evenodd" fill="#FFF" d="M39.685 1.51c21.08 0 38.175 17.095 38.175 38.174S60.764 77.86 39.685 77.86c-21.08 0-38.174-17.096-38.174-38.175S18.605 1.51 39.686 1.51z"/><path fill-rule="evenodd" clip-rule="evenodd" fill="#005BAA" d="M39.685 6.054c-18.57 0-33.63 15.06-33.63 33.63s15.06 33.63 33.63 33.63 33.63-15.06 33.63-33.63-15.06-33.63-33.63-33.63zm-2.507 10.694c.09 0 .157 0 .23.004h2.313c4.568 0 6.48.804 8.643 2.472 3.146 2.467 3.642 6.048 3.642 7.84 0 2.222-.68 4.57-2.346 6.482-1.236 1.48-3.383 3.632-7.594 4.135-2.878.35-5.005.22-6.066.106v-2.26c.473.064 1.168.127 2.116.127 2.865 0 4.894-1.434 6.13-2.978 1.4-1.703 1.695-3.308 1.756-4.74h-7.88v-2.222h7.81c-.2-1.5-.772-2.647-1.703-3.774-1.792-2.224-4.323-2.593-5.99-2.593l-11.255-.005-1.33-2.594H37.18zm17.688 45.037H26.247l1.392-2.708v-37.84h6.14v37.8h4.34V44.27h5.668v14.75H48.7V52.3c0-4.073-.21-9.738-4.794-12.664l2.67-.98c5.524 2.054 8.29 7.417 8.29 14.483v5.938l1.39 2.706h-1.39z"/><g fill="#005BAA"><path d="M100.563 92.61l2.25-.22c.135.758.41 1.314.824 1.67s.973.533 1.676.533c.745 0 1.306-.158 1.684-.475.377-.315.566-.686.566-1.108 0-.27-.08-.503-.237-.693s-.435-.356-.83-.498c-.27-.095-.884-.262-1.844-.502-1.235-.308-2.103-.687-2.6-1.135-.7-.632-1.052-1.4-1.052-2.31 0-.585.165-1.132.495-1.64.33-.51.805-.896 1.426-1.163s1.37-.4 2.25-.4c1.433 0 2.512.317 3.236.95.725.634 1.105 1.48 1.142 2.535l-2.313.094c-.098-.59-.31-1.013-.632-1.27s-.808-.388-1.454-.388c-.668 0-1.19.14-1.567.414-.243.178-.364.414-.364.71 0 .272.113.505.34.697.292.245.997.5 2.116.767 1.12.266 1.948.54 2.484.826.537.284.957.673 1.26 1.166s.455 1.102.455 1.827c0 .656-.183 1.272-.547 1.847-.365.574-.88 1-1.547 1.28-.666.278-1.497.418-2.49.418-1.45 0-2.56-.335-3.337-1.006-.776-.67-1.24-1.647-1.39-2.93zM125.372 96.328h-2.517l-1.003-2.61h-4.573l-.955 2.61h-2.453l4.47-11.453h2.45l4.58 11.453zm-4.252-4.547l-1.584-4.233-1.548 4.234h3.132zM129.72 96.328V84.875h2.313v11.453h-2.313zM137.444 96.328V84.875h2.243l4.726 7.69v-7.69h2.14v11.453h-2.313l-4.655-7.514v7.514h-2.14zM154.792 96.328v-9.516h-3.406v-1.938h9.094v1.938h-3.375v9.516h-2.313zM172.817 96.328V84.875h3.708c1.405 0 2.32.058 2.748.172.656.172 1.205.545 1.647 1.12.442.574.664 1.317.664 2.228 0 .702-.127 1.293-.382 1.77s-.58.855-.97 1.13c-.394.27-.793.453-1.2.54-.55.11-1.35.165-2.395.165h-1.506v4.328h-2.313zm2.313-9.516v3.25h1.26c.91 0 1.516-.06 1.822-.18.306-.12.546-.307.72-.563.174-.256.26-.553.26-.892 0-.416-.12-.76-.365-1.03-.244-.272-.553-.44-.926-.51-.274-.05-.827-.077-1.657-.077h-1.113zM186.69 96.328V84.875h8.483v1.938H189v2.53h5.735v1.94H189v3.108h6.392v1.94h-8.703zM203.155 96.328v-9.516h-3.406v-1.938h9.093v1.938h-3.375v9.516h-2.313zM213.534 96.328V84.875h8.484v1.938h-6.172v2.53h5.734v1.94h-5.734v3.108h6.39v1.94h-8.702zM227.406 96.328V84.875h4.87c1.226 0 2.116.104 2.67.31.556.205 1 .57 1.334 1.097.333.526.5 1.128.5 1.805 0 .86-.252 1.57-.757 2.13-.505.56-1.26.912-2.263 1.058.5.292.914.612 1.24.96.325.35.764.97 1.316 1.86l1.4 2.234h-2.766l-1.675-2.496c-.596-.89-1.003-1.45-1.223-1.682-.22-.23-.452-.39-.697-.476s-.635-.13-1.167-.13h-.47v4.782h-2.312zm2.313-6.61h1.71c1.11 0 1.802-.047 2.078-.14.276-.095.492-.256.648-.485.156-.23.234-.516.234-.86 0-.384-.103-.695-.31-.933-.205-.236-.495-.387-.87-.45-.188-.024-.75-.038-1.688-.038h-1.805v2.906zM241.552 92.61l2.25-.22c.135.758.41 1.314.824 1.67s.973.533 1.676.533c.745 0 1.306-.158 1.684-.475.377-.315.566-.686.566-1.108 0-.27-.08-.503-.237-.693s-.435-.356-.83-.498c-.27-.095-.884-.262-1.844-.502-1.234-.308-2.102-.687-2.6-1.135-.7-.632-1.05-1.4-1.05-2.31 0-.585.164-1.132.494-1.64.33-.51.805-.896 1.426-1.163s1.37-.4 2.248-.4c1.434 0 2.513.317 3.237.95.725.634 1.105 1.48 1.142 2.535l-2.313.094c-.098-.59-.31-1.013-.632-1.27s-.808-.388-1.454-.388c-.667 0-1.19.14-1.566.414-.243.178-.364.414-.364.71 0 .272.114.505.342.697.29.245.996.5 2.115.767 1.12.266 1.948.54 2.484.826.536.284.956.673 1.26 1.166s.454 1.102.454 1.827c0 .656-.183 1.272-.547 1.847-.365.574-.88 1-1.547 1.28-.667.278-1.498.418-2.492.418-1.448 0-2.56-.335-3.336-1.006-.776-.67-1.24-1.647-1.39-2.93zM256.033 84.875h4.578c.907 0 1.583.038 2.028.113s.844.232 1.195.472.645.558.88.956c.233.397.35.844.35 1.338 0 .535-.144 1.027-.433 1.475s-.68.78-1.176 1.005c.698.203 1.234.55 1.61 1.04s.562 1.067.562 1.73c0 .52-.12 1.028-.363 1.52-.242.493-.573.888-.992 1.182-.418.295-.935.476-1.55.544-.385.043-1.315.07-2.79.08h-3.897V84.874zm2.312 1.906v2.642h1.516c.902 0 1.462-.013 1.68-.04.397-.046.708-.182.935-.407.227-.227.34-.523.34-.893 0-.354-.098-.64-.293-.86s-.486-.354-.87-.4c-.23-.026-.89-.04-1.978-.04h-1.33zm0 4.548v3.063h2.14c.834 0 1.363-.022 1.587-.07.344-.062.624-.214.84-.456s.324-.566.324-.973c0-.343-.083-.634-.25-.874-.167-.24-.408-.414-.723-.523s-1-.164-2.05-.164h-1.868zM270.772 84.875h2.313v6.203c0 .984.03 1.623.085 1.914.1.47.334.846.706 1.13.372.283.88.425 1.525.425.656 0 1.15-.134 1.483-.402.332-.268.532-.598.6-.988s.102-1.04.102-1.945v-6.336h2.313v6.02c0 1.376-.063 2.348-.188 2.916s-.355 1.048-.69 1.438c-.336.392-.785.702-1.347.935-.562.23-1.296.348-2.2.348-1.094 0-1.923-.127-2.487-.38-.565-.252-1.01-.58-1.338-.984-.328-.404-.544-.828-.648-1.272-.15-.656-.226-1.626-.226-2.908v-6.115zM285.542 96.328V84.875h4.87c1.226 0 2.116.104 2.67.31.556.205 1 .57 1.334 1.097.333.526.5 1.128.5 1.805 0 .86-.252 1.57-.757 2.13-.506.56-1.26.912-2.264 1.058.5.292.914.612 1.24.96.325.35.764.97 1.316 1.86l1.4 2.234h-2.766l-1.675-2.496c-.595-.89-1.002-1.45-1.222-1.682-.22-.23-.452-.39-.697-.476s-.634-.13-1.166-.13h-.47v4.782h-2.312zm2.312-6.61h1.71c1.11 0 1.803-.047 2.08-.14.275-.095.49-.256.647-.485.157-.23.235-.516.235-.86 0-.384-.103-.695-.31-.933-.205-.236-.495-.387-.87-.45-.188-.024-.75-.038-1.688-.038h-1.805v2.906zM305.625 92.125v-1.938h4.984v4.563c-.486.47-1.188.885-2.108 1.243-.92.357-1.852.537-2.795.537-1.198 0-2.244-.252-3.135-.755-.892-.503-1.56-1.223-2.01-2.16-.447-.935-.67-1.953-.67-3.054 0-1.193.25-2.255.75-3.183.5-.93 1.23-1.64 2.194-2.136.734-.38 1.648-.57 2.742-.57 1.422 0 2.532.3 3.332.896.8.598 1.313 1.424 1.543 2.48l-2.297.437c-.16-.564-.464-1.01-.91-1.338-.443-.326-1-.49-1.665-.49-1.008 0-1.81.32-2.406.96-.596.642-.894 1.593-.894 2.853 0 1.36.302 2.38.905 3.06.603.68 1.394 1.02 2.372 1.02.484 0 .97-.096 1.456-.285s.903-.42 1.252-.69v-1.447h-2.64z"/></g></svg>